<?xml version="1.0" encoding="UTF-8" standalone="no"?>
<!-- Created with Inkscape (http://www.inkscape.org/) -->

<svg
   version="1.1"
   id="svg171"
   width="929"
   height="908"
   viewBox="0 0 929 908"
   xmlns:xlink="http://www.w3.org/1999/xlink"
   xmlns="http://www.w3.org/2000/svg"
   xmlns:svg="http://www.w3.org/2000/svg">
  <defs
     id="defs175" />
  <g
     id="g177">
    <image
       width="929"
       height="908"
       preserveAspectRatio="none"
       xlink:href="icon.png"
       id="image179" />
    <g
       id="g280">
      <path
         style="fill:#fefefe"
         d="M 0,454 V 0 H 464.5 929 V 454 908 H 464.5 0 Z M 398.85361,888.5 C 443.14606,683.60102 327.25506,481.02681 128.82717,416.50141 119.52232,413.47564 111.47968,411 110.95464,411 110.35975,411 110,432.22712 110,467.32791 v 56.32792 l 12.32983,5.23239 c 33.43735,14.18976 62.78222,34.27954 91.17017,62.41599 l 17,16.84939 -6,3.40484 c -3.3,1.87266 -54.15,31.221 -113,65.21853 l -107,61.8137 -0.2637224,31.4658 -0.2637224,31.46581 26.4709528,15.23886 C 45.002531,825.14251 57.167156,832 57.476008,832 c 0.308851,0 51.214532,-29.25 113.123742,-65 61.90921,-35.75 112.72964,-65 112.93427,-65 0.67027,0 6.56858,19.27843 9.02563,29.5 8.23384,34.2535 10.44581,73.12074 6.03257,106 -0.73825,5.5 -1.25512,10.10588 -1.14861,10.2353 1.22896,1.49326 97.22219,55.98912 97.7127,55.47202 0.36903,-0.38903 2.03281,-7.00732 3.6973,-14.70732 z m 182.7728,-12.11711 c 56.52288,-32.60667 49.75387,-27.43232 48.40819,-37.00403 -4.47213,-31.80977 -2.56168,-72.42157 4.93366,-104.87886 3.28759,-14.23633 9.26599,-32.62425 10.45778,-32.16527 0.59068,0.22748 51.4347,29.49522 112.98671,65.03943 61.55202,35.54421 112.17702,64.6239 112.5,64.62154 0.32299,-0.002 12.51225,-6.88818 27.08725,-15.30181 l 26.5,-15.2975 0.26408,-31.07685 0.26407,-31.07685 -113.01407,-65.23456 C 749.85633,638.12911 699,608.46729 699,608.09297 c 0,-1.43584 20.28577,-22.13111 29.6654,-30.26425 24.27697,-21.05072 53.26234,-39.05899 82.5846,-51.30884 L 818,523.69996 V 467.34998 C 818,436.35749 817.67785,411 817.2841,411 c -0.39374,0 -6.58124,1.83605 -13.75,4.08011 -192.44065,60.2404 -311.35717,253.98224 -277.95635,452.85365 2.2359,13.31276 7.21096,36.06624 7.8859,36.06624 0.15905,0 21.83229,-12.4277 48.16276,-27.61711 z M 498.5,406.95005 c 89.38588,-7.6672 170.97138,-43.4336 238.55046,-104.57853 6.56061,-5.93597 11.59564,-11.1193 11.18896,-11.51851 -0.8371,-0.82172 -94.07299,-54.80011 -95.9609,-55.55603 -0.67182,-0.26899 -4.75488,2.17342 -9.07347,5.42758 -36.37688,27.4108 -73.86466,44.12586 -122.95505,54.82324 L 518,296.0381 517.98383,165.26905 517.96765,34.5 491.50967,19.25 C 459.95054,1.0597685 468.41065,1.0566429 436.91003,19.270172 L 410.5,34.540344 l -0.25372,130.747946 -0.25372,130.74795 -2.24628,-0.48582 C 359.60185,285.13787 320.42243,267.60661 285.07551,240.66003 280.99204,237.54701 277.34833,235 276.97837,235 c -0.6444,0 -95.9481,54.78273 -96.97837,55.74537 -0.85752,0.80123 17.88877,18.04857 31.5,28.98127 79.98921,64.24826 184.51257,96.01441 287,87.22341 z"
         id="path288" />
      <path
         style="fill:#c7c9cc"
         d="m 410.48532,165.5 c 3e-5,-72.05 0.11909,-101.377485 0.26458,-65.17219 0.14549,36.2053 0.14547,95.1553 -5e-5,131 -0.14552,35.8447 -0.26456,6.22219 -0.26453,-65.82781 z"
         id="path286" />
      <path
         style="fill:#95989e"
         d="m 517.48532,165.5 c 3e-5,-72.05 0.11909,-101.377485 0.26458,-65.17219 0.14549,36.2053 0.14547,95.1553 -5e-5,131 -0.14552,35.8447 -0.26456,6.22219 -0.26453,-65.82781 z"
         id="path284" />
      <path
         style="fill:#00a0c4"
         d="m 346.5,875.15636 c -43.46473,-25.13933 -47.98576,-27.99366 -47.84926,-30.20941 0.0829,-1.34582 0.73042,-7.39695 1.43892,-13.44695 4.12118,-35.1913 -0.15763,-80.05472 -11.08766,-116.25443 -2.2011,-7.28993 -4.002,-13.47743 -4.002,-13.75 0,-1.43559 -10.55814,4.51459 -114.6016,64.58524 -85.279583,49.23713 -113.143475,64.87855 -114.455989,64.25 C 54.988239,829.87387 42.907513,822.975 29.096354,815 L 3.9851572,800.5 4.2425786,770.05786 4.5,739.61572 117.17397,674.55786 c 61.97069,-35.78182 112.94185,-65.32903 113.26926,-65.66045 0.98161,-0.99366 -15.77025,-18.93938 -27.07199,-29.00134 C 178.2059,557.49131 149.18559,539.02785 120,526.85315 l -8.5,-3.54576 -0.25843,-55.72376 c -0.24471,-52.76572 -0.16508,-55.69701 1.5,-55.21985 208.99242,59.88974 335.0347,273.50194 284.01891,481.34563 L 394.5,902.91883 Z m 187.09706,26.99155 C 532.56316,900.45108 526.87634,871.95544 525.08591,859.5 497.15107,665.16663 610.85275,480.47654 796.64444,418.39685 807.17388,414.87858 816.06138,412 816.39444,412 c 0.33306,0 0.60001,25.0875 0.59324,55.75 l -0.0123,55.75 -7.23768,2.87165 c -21.31611,8.45746 -50.51444,25.64555 -70.95345,41.76795 -11.28461,8.90135 -40.81148,37.91746 -40.73844,40.03373 0.0252,0.72967 50.8601,30.57667 112.96649,66.32667 l 112.9207,65 0.0335,30.60739 0.0335,30.60739 -26.45388,15.20248 c -23.98807,13.78543 -26.6679,15.09006 -28.75,13.99646 -1.26287,-0.66331 -52.16905,-29.99482 -113.12484,-65.18114 -61.29382,-35.38145 -111.19724,-63.58572 -111.65324,-63.10386 -2.66274,2.81377 -11.16612,36.19185 -14.10637,55.37128 -3.59079,23.42307 -3.73,59.54044 -0.33244,86.2528 l 0.54021,4.2472 -48.0638,27.64791 c -26.43509,15.20635 -48.24145,27.35635 -48.45858,27 z M 441.5,406.9519 c -84.12957,-4.83628 -164.40564,-35.68755 -230,-88.39236 -14.13011,-11.35349 -30.74198,-26.72104 -29.82957,-27.59517 0.83232,-0.7974 87.39332,-50.90212 92.60898,-53.60552 2.71077,-1.40505 3.02532,-1.26056 12.73481,5.84954 35.80163,26.21695 79.88144,45.61913 120.73578,53.14307 L 411,296.95 V 166.10345 35.256896 l 25.25,-14.56396 c 13.8875,-8.010178 25.9858,-14.8462848 26.88511,-15.1913483 1.0593,-0.406454 10.7434,4.6385403 27.5,14.3263023 L 516.5,34.781581 l 0.25371,131.187849 0.25371,131.18785 3.24629,-0.65814 c 42.96533,-8.71064 82.39507,-25.67179 116.45809,-50.09578 6.82942,-4.89685 12.96831,-9.29126 13.64199,-9.76536 0.96696,-0.68049 78.21385,42.68171 94.50916,53.0523 l 2.36295,1.50382 -4.36295,4.49627 C 671.82794,368.89605 551.60565,413.28144 441.5,406.9519 Z"
         id="path282" />
    </g>
  </g>
</svg>
